<svg xmlns="http://www.w3.org/2000/svg" id="Capa_1" data-name="Capa 1" viewBox="0 0 288.14 350.67"><defs><style>.cls-1{fill:#18f281}</style></defs><path d="M193.04 24.46c-14.56 0-26.37 12.09-26.37 27s11.81 27 26.37 27 26.37-12.09 26.37-27-11.8-27-26.37-27Zm.73 48.11a21.06 21.06 0 0 1-20-27.87 13.17 13.17 0 0 0-.13 1.77c0 7.85 6.81 14.22 15.21 14.22s15.22-6.37 15.22-14.22a13.93 13.93 0 0 0-6.27-11.46 5.13 5.13 0 1 1-3.82-1.75 3.47 3.47 0 0 1 .64.06 16.25 16.25 0 0 0-11.67 0 21.08 21.08 0 1 1 10.78 39.2ZM205.08 233.01c5.89-2.86 6.92-8.32 7.35-14.78-.52 7.85-8.32 12.23-14.49 9.43a14 14 0 0 1-4-2.62c0 .24.06.49.08.75a17.2 17.2 0 0 1-1 6.51 12.93 12.93 0 0 0 12.06.71ZM169.2 167.27c.53-.38 1.06-.75 1.57-1.13 2.27-1.66 5-4 6.15-7.18a7.5 7.5 0 0 0-.89-6.6 4.57 4.57 0 0 0-.8-1 8.73 8.73 0 0 0-1.15-.75 20.42 20.42 0 0 0-2.57-1.16 10.46 10.46 0 0 0-7.26-.63c-.41.1-.8.22-1.2.35a11.62 11.62 0 0 0-4.52 2.91 11.28 11.28 0 0 0-1.1 1.38c-1.48 2.26-2.11 5-3.48 7.28-2.58 4.35-7.4 6.79-12.07 8.7a122.92 122.92 0 0 1-17.36 5.63c-4.71 1.15-9.47 2.1-14.27 2.8-.7.1-1.39.2-2.09.24a10.09 10.09 0 0 1-1.1 0c-.22 0-.62-.12-.81 0a31 31 0 0 1 6.11-2.28c2.1-.67 4.18-1.44 6.22-2.28 3.19-1.32 6.41-2.2 9.65-3.34 3.53-1.24 6.8-3.1 10.34-4.32h.09a1.75 1.75 0 0 0 .23-.24 1.13 1.13 0 0 0 .24-.3 7.57 7.57 0 0 0 .49-.76 7.16 7.16 0 0 0 .45-.87 37.46 37.46 0 0 0 1.56-3.83c.46-1.32.89-2.67 1.28-4l.58-2 .27-1v-.77a19 19 0 0 0-.89-7.74 11.07 11.07 0 0 0-4.49-5.66 15.47 15.47 0 0 0-7-2.56 11.3 11.3 0 0 0-3.53.14 8.12 8.12 0 0 0-3 1.41 40.64 40.64 0 0 0-5.78 5.71c-.52.55-1.06 1.1-1.64 1.64-.29.27-.58.54-.89.8l-.47.38-.55.41a17 17 0 0 1-4.55 2.16c-1.49.47-2.91.83-4.22 1.21-.66.19-1.24.39-1.85.62l-2 .77c-2.65 1-5.24 2.13-7.75 3.35a78.88 78.88 0 0 0-14.17 8.7 57.69 57.69 0 0 0-11.62 11.63 34.91 34.91 0 0 0-4 7c-.28.6-.48 1.23-.72 1.85l-.08.25.32.2c.53.32 1.12.64 1.72 1 1.21.61 2.49 1.2 3.76 1.74l.94.38c.21.09.6.22.9.32.64.21 1.3.41 2 .6a66 66 0 0 0 8.11 1.57c2.76.4 5.56.63 8.35.78s5.62.18 8.42.06a81.22 81.22 0 0 0 8.39-.77l4.28-.67a37.26 37.26 0 0 1 4.48-.39 50.74 50.74 0 0 1 8.35.57c3 .41 6.3 1 8.82 2.88a15.61 15.61 0 0 1 1.74 1.5 28.8 28.8 0 0 1 6.1 9.61 53.44 53.44 0 0 1 2.46 7.73c.36 1.51.67 3 .94 4.58a31.09 31.09 0 0 1 .45 3.85c2-1.54 4.74-3.56 7.88-5.67-1.09-1.44-.89-7.51-2.47-10.16l7.31 7.06c5.61-3.4 11.89-6.53 17.48-7.72a28.31 28.31 0 0 1 .76-2.92c0-3.35-2.05-6.43-6.39-9.38a42.41 42.41 0 0 1-7.09-6.08 10.71 10.71 0 0 1-1.88-2.55 8.32 8.32 0 0 1 .91-8c1.88-2.98 4.78-5.05 7.6-7.04Z" class="cls-1"/><path d="M211.98 237.45a22 22 0 0 1-12.22 1.76 26.23 26.23 0 0 1-9-2.89 16.72 16.72 0 0 1-5.08 4.39 21.16 21.16 0 0 1-10.94 2.3c-1 0-2.1-.12-3.12-.2-1.22-.1-2.49-.2-3.74-.21h-.08a18 18 0 0 0-9.34 2.81 48.76 48.76 0 0 0 4.18 5c16.76 17.25 45.39 19.48 64.27 4.19 10.85-8.78 17.54-22.94 16.08-36.82-1.7-16.07-15.06-30.74-31.75-31a31 31 0 0 0-19.53 6.88c-3 2.37-4.56 5.75-7.2 8.21a10.12 10.12 0 0 1-1.78 1.34c1.76.79 7.45 3.84 8.61 10.41a3.45 3.45 0 0 1 .13-.7 15 15 0 0 1 12.33-11.28c15.14-2.22 23.63 16 16.58 28a19.85 19.85 0 0 1-8.4 7.81Z" class="cls-1"/><path d="M286.65 202.75a74.89 74.89 0 0 0-16.24-33.67 77.58 77.58 0 0 0-33.28-23.51 76.31 76.31 0 0 0-60 4.2 8.76 8.76 0 0 1-1.47.65 8.2 8.2 0 0 1 2.16 8.84c-1.23 3.47-4.12 5.92-6.51 7.66l-1.58 1.14c-2.74 1.94-5.57 3.94-7.34 6.7-1.17 1.83-2 4.64-.85 7a10.12 10.12 0 0 0 1.71 2.3 41.35 41.35 0 0 0 6.93 5.94c3.71 2.52 5.88 5.17 6.57 8 4.82-12.49 16.9-22 30.25-24.13 16.82-2.66 35.55 5.78 44.33 20.42 9.27 15.45 8.19 34.78 2.12 51.19a102.49 102.49 0 0 1-16.47 29.53 72.07 72.07 0 0 1-22.53 18.5c-17.65 9.12-38 12-57.66 12.21a20.62 20.62 0 0 1-14.3-5.5l-5.67-5.25a3 3 0 0 1-.15-4.24l7.46-7.76a15.37 15.37 0 0 1-2 1.17 13.42 13.42 0 0 1-7 1.26 9.34 9.34 0 0 1-3.46-1.05 8.79 8.79 0 0 1-2.69-2.44 11.2 11.2 0 0 1-1.69-3.16 24.3 24.3 0 0 1-1-3.45c-1-4.67-1-9.46-1.79-14.09a22.82 22.82 0 0 0-6.28-12.3 26.58 26.58 0 0 0-5.43-4.43 11.68 11.68 0 0 0-3.15-1.44 7.15 7.15 0 0 0-3.41-.06c-2.25.54-4.32 1.8-6.6 2.52-1 .31-2 .58-3 .82 1.1.34 3.28 2.19.79 11.82a45 45 0 0 0-1.44-5.83 16.19 16.19 0 0 0-1.61-3.84 4.19 4.19 0 0 0-.89-1.12 2 2 0 0 0-1.49-.15c-.63.07-1.26.08-1.89.09a39.86 39.86 0 0 1-8.09-.43 22.52 22.52 0 0 1-3.42-.95l.11-.29a20.38 20.38 0 0 0 3.47.55 28.67 28.67 0 0 0 3.47.09 41.37 41.37 0 0 0 13.34-2.67c1-.42 2-.9 3.06-1.43a20 20 0 0 1 3.66-1.47 9.72 9.72 0 0 1 4.55-.09 14.23 14.23 0 0 1 3.9 1.64 30.18 30.18 0 0 1 6.13 4.77 27.59 27.59 0 0 1 4.63 6.26 22.06 22.06 0 0 1 1.6 3.66 16.71 16.71 0 0 1 .57 1.95c.14.63.29 1.25.38 1.88.8 5 .77 9.71 1.6 14a23.69 23.69 0 0 0 .77 3.12l.25.74.27.64a7.34 7.34 0 0 0 .67 1.15 6.49 6.49 0 0 0 4.38 2.67 11.45 11.45 0 0 0 5.9-.76 12.77 12.77 0 0 0 5.14-3.55 9.58 9.58 0 0 0 .73-1c.42-2.69 1-6.64 1-7a41.69 41.69 0 0 1 .1-5 51.51 51.51 0 0 1 2.61-12.51c1.15-3.44 2.1-6.41 5.62-8l.92-.41a19 19 0 0 1 10.45-3.26c1.28 0 2.57.11 3.81.22 1 .08 2.05.16 3.07.19a20.27 20.27 0 0 0 10.43-2.18 15.68 15.68 0 0 0 8.06-14c-.1-2.14-1.06-3.26-2.69-4.47-.27-.21-.55-.4-.83-.6a12.29 12.29 0 0 0-3.23-1.08 26.84 26.84 0 0 0-3.58-.39v.06c-.66-.05-1.33-.07-2-.08a49.33 49.33 0 0 0-8.82 1.08c-2.4.5-4.77 1.13-7.13 1.82-1.22.36-2.43.74-3.65 1.12-.72.22-2.88.5-3.36 1.06 0 0 5.74-6.71 17.37-8.46l.74-.07h.23c9.85-1.2 13.28 1.22 14.25 2.23h.06c0-.63-.05-1.45-.09-2.53a12.06 12.06 0 0 0-1.78-5.83 14.9 14.9 0 0 0-4.43-4.41 9.1 9.1 0 0 0-2.26-1.1 8.27 8.27 0 0 0-2.67-.19 25.4 25.4 0 0 0-4.61.39 30.63 30.63 0 0 0-3.95 1.24l-.32.12a59.54 59.54 0 0 0-6 2.67c-2 1-4 2.11-5.88 3.27s-3.67 2.28-5.46 3.49c-1.58 1.07-3.15 2.17-4.69 3.3-1.22.89-2.42 1.79-3.61 2.72-4.13 3.21-6.82 9.11-12.86 9-2.92-.05-5.54-1.72-7.94-3.4-7.56-5.29-14.74-11.13-22.45-16.23s-16-9.48-25-11.45-18.84-1.37-27 3a12.49 12.49 0 0 0-4.52 3.7 12.41 12.41 0 0 0-1.83 5.67c-.79 7 1 14.08 4.21 20.35a80.13 80.13 0 0 0 12.35 17l1.93-2a11.78 11.78 0 0 1-5.71 6.05l3.48-3.73c-5.34-5.13-10.38-10.69-14-17.17s-5.65-14-4.72-21.33a15.29 15.29 0 0 1 2.09-6.43 16 16 0 0 1 6.27-5.2c8.39-4.34 18.41-4.76 27.63-2.73s17.78 6.36 25.91 11.15c4.69 2.76 9.27 5.69 13.93 8.5 4.31 2.59 8.77 4.93 13.1 7.49a4.12 4.12 0 0 0 1 .46c1.62.41 4.35-.65 5.76-1.37 2.82-1.44 3.26-3.94 2.7-6.83a56.14 56.14 0 0 0-2.42-9.29c-.2-.51-.4-1-.62-1.52-1.67-3.81-4.31-7.7-8.19-9.49a39.7 39.7 0 0 0-15.79-3.62c-5 0-10 1.38-15 1.45a101.56 101.56 0 0 1-15.2-.72 68.15 68.15 0 0 1-8.49-1.68 44.06 44.06 0 0 1-8.07-3.17c-.65-.32-1.29-.66-1.92-1a6.3 6.3 0 0 1-1.77-1.39 1.37 1.37 0 0 1-.16-.32.72.72 0 0 1 0-.41l.16-.52.32-1c.25-.68.47-1.37.76-2a37.77 37.77 0 0 1 4.25-7.57 60.48 60.48 0 0 1 12.11-12.33 81.83 81.83 0 0 1 14.79-9c2.61-1.24 5.28-2.34 8-3.37 1.34-.51 2.69-1 4.09-1.44s2.79-.73 4.15-1.16a14.37 14.37 0 0 0 3.84-1.76 23.72 23.72 0 0 0 3.15-2.86c2-2.06 3.81-4.36 6.24-6a10.76 10.76 0 0 1 4-1.78 13.36 13.36 0 0 1 4.37-.13 18.21 18.21 0 0 1 8.07 3.14 13.43 13.43 0 0 1 5.18 6.89 21.13 21.13 0 0 1 .81 8.62 6.8 6.8 0 0 1-.17 1.1l-.3 1-.63 2.06c-.43 1.38-.9 2.75-1.4 4.1a36.28 36.28 0 0 1-1.73 4c-.08.17-.18.33-.27.49 5.55-2 10.54-5.08 10.29-11.84a26.64 26.64 0 0 0-2.06-8.28 52.85 52.85 0 0 0-5-10.49 51.85 51.85 0 0 0-4.09-4.55c-.83-1.13-2.22-3.32-2.2-4.62a3.3 3.3 0 0 1 1-2.46c2.06-1.68 6.09-.66 8.49-.55l10.33.46 20.67.92a74.93 74.93 0 0 0 14.44-.31c5.15-.79 10-2.59 15.11-3.54 5.52-1 11.12-1.53 16.66-2.46 12-2 26.33-7.54 29.24-20.92l-70.35.59a26.8 26.8 0 0 0-6.74.62c-3.3.87-6.86 3.71-10.41 3 10-4.74 20.44-6 31.35-6.72l29.69-2c5.46-.38 10.93-.55 16.38-1 2.36-.18 11.19.52 9.78-3.86a8.2 8.2 0 0 0-2-2.83c-2.89-3.18-4.27-7.91-6.89-11.41a77.44 77.44 0 0 0-9.58-10.57c-3.5-3.22-3-8.79-5.69-12.57-1.43-2-6.65-7.15-10.23-7.93l-.25.05a28 28 0 1 1-45.16-7.26l-.95.23 3.3-2.94.42-.53.65-.48 1-.73a22.71 22.71 0 0 1 7.17-3.39l1.85-.87s-7.54 1-13.7-3.25-18.45-17.34-32.63-20.5-19.48-2.71-23.35 2a8.18 8.18 0 0 0 2.87 7.44c3.62 3.07 18.49 12.72 17.45 19.8a159.71 159.71 0 0 0-77.9 33.49l.89 37.85c-2.4-12-13.7-19.21-18.3-21.7a160.23 160.23 0 0 0-27.7 40.88l12 8 8.58 5.71c-22-.89-28 5.77-28.34 6.2a160.55 160.55 0 0 0-7.45 44.84c3.49 1.45 16.78 6.83 19.47 5.84S5.23 197.91.36 201.64a159.57 159.57 0 0 0 15.76 58.82c7-.19 21.48.23 21.48.23l-14.1 13.22a161.23 161.23 0 0 0 54.23 53.84l15.8-14.34s-.86 15.6.84 23.08a159.79 159.79 0 0 0 66 14.18 160.33 160.33 0 0 0 14.64-.67c1-.08 1.27.05 1.33-1a12 12 0 0 0-.53-3.2 37.79 37.79 0 0 0-6.83-14.52 18.12 18.12 0 0 0 2.64 2.23l3 2.51 5.73 4.93 5.77 4.88c1 .86 1.78 2.16 3.2 2.35 2 .28 4.25-.45 6.2-.9a44.29 44.29 0 0 0 7-2.44c25.9-10.92 47.3-30.52 62.29-54.13 16.02-25.27 27.57-57.8 21.84-87.96ZM244.3 78.46c.87 0 1.57 1 1.57 2.22s-.7 2.22-1.57 2.22-1.56-1-1.56-2.22.73-2.22 1.56-2.22Z" class="cls-1"/></svg>