<svg xmlns="http://www.w3.org/2000/svg" viewBox="0 0 608.42 450.99">
  <defs>
    <style>
      .cls-1{fill:none;}
      .cls-2{fill:var(--color-primary);}
      .cls-3{fill:var(--color-primary);}
    </style>
  </defs>
  <title>pallettr_base</title>
  <g id="Capa_8" data-name="Capa 8">
    <path class="cls-1" d="M-218.58,504.7c10.16-1.76,13.35-2.16,15.73,8.55" transform="translate(218.58 -62.26)"/>
  </g>
  <g id="Capa_2" data-name="Capa 2">
    <path class="cls-2" d="M294.74,86.71c-14.56,0-26.37,12.09-26.37,27s11.81,27,26.37,27,26.37-12.09,26.37-27S309.31,86.71,294.74,86.71Zm.73,48.11a21.06,21.06,0,0,1-20-27.87,13.05,13.05,0,0,0-.13,1.77c0,7.85,6.81,14.22,15.21,14.22s15.22-6.37,15.22-14.22a13.93,13.05,0,0,0-6.27-11.48,5.12,5.12,0,1,1-3.82-1.73,4.48,4.48,0,0,1,.64.06,16.23,16.23,0,0,0-11.67.05,21.08,21.08,0,1,1,10.78,39.2Z" transform="translate(218.58 -62.26)"/>
    <path class="cls-3" d="M308.62,295.28c6.8-2.86,8-8.32,8.48-14.78-.6,7.85-9.59,12.23-16.71,9.43a16.19,16.19,0,0,1-4.55-2.62,5.94,5.94,0,0,1,.08.75,15.19,15.19,0,0,1-1.18,6.51A16.92,16.92,0,0,0,308.62,295.28Z" transform="translate(218.58 -62.26)"/>
    <path class="cls-2" d="M270.9,229.52c.53-.38,1.06-.75,1.57-1.13,2.27-1.66,5-4,6.15-7.18a7.51,7.51,0,0,0-.89-6.6,4.63,4.63,0,0,0-.8-1,7.82,7.82,0,0,0-1.15-.75,20.42,20.42,0,0,0-2.57-1.16,10.47,10.47,0,0,0-7.26-.63c-.41.1-.8.22-1.2.35a11.55,11.55,0,0,0-4.52,2.91,11.28,11.28,0,0,0-1.1,1.38c-1.48,2.26-2.11,5-3.48,7.28-2.58,4.35-7.4,6.79-12.07,8.7a123,123,0,0,1-17.36,5.63c-4.71,1.15-9.47,2.1-14.27,2.8-.7.1-1.39.2-2.09.24a8.13,8.13,0,0,1-1.1,0c-.22,0-.62-.12-.81,0a30.75,30.75,0,0,1,6.11-2.28c2.1-.67,4.18-1.44,6.22-2.28,3.19-1.32,6.41-2.2,9.65-3.34,3.53-1.24,6.8-3.1,10.34-4.32l.09-.05a1.73,1.73,0,0,0,.23-.24,1.12,1.12,0,0,0,.24-.3,6.66,6.66,0,0,0,.49-.76,8.85,8.85,0,0,0,.45-.87,36.47,36.47,0,0,0,1.56-3.83c.46-1.32.89-2.67,1.28-4l.58-2,.27-1,0-.1,0-.16,0-.51a19,19,0,0,0-.89-7.74,11.09,11.09,0,0,0-4.49-5.66,15.56,15.56,0,0,0-7-2.56,11.19,11.19,0,0,0-3.53.14,8.09,8.09,0,0,0-3,1.41c-2,1.4-3.73,3.5-5.78,5.71-.52.55-1.06,1.1-1.64,1.64-.29.27-.58.54-.89.8l-.47.38-.55.41a16.93,16.93,0,0,1-4.55,2.16c-1.49.47-2.91.83-4.22,1.21-.66.19-1.24.39-1.85.62l-2,.77c-2.65,1-5.24,2.13-7.75,3.35a79,79,0,0,0-14.18,8.75,57.68,57.68,0,0,0-11.62,11.63,34.86,34.86,0,0,0-4,7c-.28.6-.48,1.23-.72,1.85l-.08.25.32.2c.53.32,1.12.64,1.72.95,1.21.61,2.49,1.2,3.76,1.74l.94.38c.21.09.6.22.9.32.64.21,1.3.41,2,.6A65.74,65.74,0,0,0,184,252.2c2.76.4,5.56.63,8.35.78s5.62.18,8.42.06a81.22,81.22,0,0,0,8.39-.77l4.28-.67a39.43,39.43,0,0,1,4.48-.39,50.74,50.74,0,0,1,8.35.57c3,.41,6.3,1.05,8.82,2.88a15.61,15.61,0,0,1,1.74,1.5,28.85,28.85,0,0,1,6.1,9.61,53.44,53.44,0,0,1,2.46,7.73c.36,1.51.67,3,.94,4.58a30.39,30.39,0,0,1,.45,3.85c2-1.54,4.74-3.56,7.88-5.67-1.09-1.44-.89-7.51-2.47-10.16l7.31,7.06c5.61-3.4,11.89-6.53,17.48-7.72.21-1,.46-2,.76-2.92,0-3.35-2.05-6.43-6.39-9.38a42.35,42.35,0,0,1-7.09-6.08,10.74,10.74,0,0,1-1.88-2.55,8.33,8.33,0,0,1,.91-8C265.18,233.58,268.08,231.51,270.9,229.52Z" transform="translate(218.58 -62.26)"/>
    <path class="cls-2" d="M313.68,299.7a22.06,22.06,0,0,1-12.22,1.76,26.37,26.37,0,0,1-9-2.89,16.6,16.6,0,0,1-5.08,4.39,21.16,21.16,0,0,1-10.94,2.3c-1,0-2.1-.12-3.12-.2-1.22-.1-2.49-.2-3.74-.21h-.08a17.93,17.93,0,0,0-9.34,2.81,49.51,49.51,0,0,0,4.18,5c16.76,17.25,45.39,19.48,64.27,4.19,10.85-8.78,17.54-22.94,16.08-36.82-1.7-16.07-15.06-30.74-31.75-31a31,31,0,0,0-19.53,6.88c-3,2.37-4.56,5.75-7.2,8.21a10,10,0,0,1-1.78,1.34c1.76.79,7.45,3.84,8.61,10.41,0-.23.08-.47.13-.7a15,15,0,0,1,12.33-11.28c15.14-2.22,23.63,16,16.58,28A19.85,19.85,0,0,1,313.68,299.7Z" transform="translate(218.58 -62.26)"/>
    <path class="cls-2" d="M388.35,265a74.86,74.86,0,0,0-16.24-33.67,77.5,77.5,0,0,0-33.28-23.51,76.31,76.31,0,0,0-59.95,4.2,8.76,8.76,0,0,1-1.47.65,8.21,8.21,0,0,1,2.16,8.84c-1.23,3.47-4.12,5.92-6.51,7.66l-1.58,1.14c-2.74,1.94-5.57,3.94-7.34,6.7-1.17,1.83-2,4.64-.85,7a10.05,10.05,0,0,0,1.71,2.3,40.9,40.9,0,0,0,6.93,5.94c3.71,2.52,5.88,5.17,6.57,8,4.82-12.49,16.9-22,30.25-24.13,16.82-2.66,35.55,5.78,44.33,20.42,9.27,15.45,8.19,34.78,2.12,51.19a102.37,102.37,0,0,1-16.49,29.49,72,72,0,0,1-22.53,18.5c-17.65,9.12-38,12-57.66,12.21a20.62,20.62,0,0,1-14.3-5.5l-5.67-5.25a3,3,0,0,1-.12-4.27l7.46-7.76a15.46,15.46,0,0,1-2,1.17,13.42,13.42,0,0,1-7,1.26,9.39,9.39,0,0,1-3.46-1.05,8.8,8.8,0,0,1-2.74-2.37A11.14,11.14,0,0,1,229,341a24.57,24.57,0,0,1-1-3.45c-1-4.67-1-9.46-1.79-14.09a22.82,22.82,0,0,0-6.28-12.3,26.58,26.58,0,0,0-5.43-4.43,11.63,11.63,0,0,0-3.15-1.44,7.15,7.15,0,0,0-3.41-.06c-2.25.54-4.32,1.8-6.6,2.52-1,.31-2,.58-3,.82,1.1.34,3.28,2.19.79,11.82a44.64,44.64,0,0,0-1.42-5.83,16,16,0,0,0-1.61-3.84,3.9,3.9,0,0,0-.89-1.12,2,2,0,0,0-1.49-.15c-.63.07-1.26.08-1.89.09a39.78,39.78,0,0,1-8.09-.43h-.05a22.52,22.52,0,0,1-3.42-.95l.11-.29a20.38,20.38,0,0,0,3.47.55,28.67,28.67,0,0,0,3.47.09,41.41,41.41,0,0,0,13.38-2.67c1-.42,2-.9,3.06-1.43a19.78,19.78,0,0,1,3.66-1.47,9.71,9.71,0,0,1,4.55-.09,14.31,14.31,0,0,1,3.9,1.64,29.91,29.91,0,0,1,6.11,4.73,27.53,27.53,0,0,1,4.63,6.26,22.16,22.16,0,0,1,1.6,3.66,18.21,18.21,0,0,1,.57,1.95c.14.63.29,1.25.38,1.88.8,5,.77,9.71,1.6,14a23.7,23.7,0,0,0,.77,3.12l.25.74.27.64a7.68,7.68,0,0,0,.67,1.15,6.48,6.48,0,0,0,4.38,2.67,11.53,11.53,0,0,0,5.9-.76,12.83,12.83,0,0,0,5.14-3.55,9.58,9.58,0,0,0,.73-.95c.42-2.69,1-6.64,1-7a42,42,0,0,1,.1-5,51.51,51.51,0,0,1,2.61-12.51c1.15-3.44,2.1-6.41,5.62-8l.92-.41a19,19,0,0,1,10.45-3.26c1.28,0,2.57.11,3.81.22,1,.08,2.05.16,3.07.19a20.26,20.26,0,0,0,10.43-2.18,15.69,15.69,0,0,0,8.06-14c-.1-2.14-1.06-3.26-2.69-4.47-.27-.21-.55-.4-.83-.6a12.16,12.16,0,0,0-3.23-1.08,26.66,26.66,0,0,0-3.58-.39s0,0,0,.06c-.66-.05-1.33-.07-2-.08a49.46,49.46,0,0,0-8.82,1.08c-2.4.5-4.77,1.13-7.13,1.82-1.22.36-2.43.74-3.65,1.12-.72.22-2.88.5-3.36,1.06,0,0,5.74-6.71,17.37-8.46v0l.74-.07.23,0c9.85-1.2,13.28,1.22,14.25,2.23h.06c0-.63-.05-1.45-.09-2.53a12.06,12.06,0,0,0-1.78-5.83,14.9,14.9,0,0,0-4.43-4.41,8.93,8.93,0,0,0-2.26-1.1,8.25,8.25,0,0,0-2.67-.19,26.32,26.32,0,0,0-4.61.39,30.15,30.15,0,0,0-3.95,1.24l-.32.12a59,59,0,0,0-6,2.67c-2,1-4,2.11-5.88,3.27s-3.67,2.28-5.46,3.49c-1.58,1.07-3.15,2.17-4.69,3.3-1.22.89-2.42,1.79-3.61,2.72-4.13,3.21-6.82,9.11-12.86,9-2.92-.05-5.54-1.72-7.94-3.4-7.56-5.29-14.74-11.13-22.45-16.23s-16-9.48-25-11.45-18.84-1.37-27,3a12.55,12.55,0,0,0-4.52,3.7,12.34,12.34,0,0,0-1.83,5.67c-.79,7,1,14.08,4.21,20.35s7.63,11.79,12.35,17l1.93-2a11.78,11.78,0,0,1-5.71,6.05l3.48-3.73c-5.34-5.13-10.38-10.69-14-17.17s-5.65-14-4.72-21.33a15.25,15.25,0,0,1,2.09-6.43,16,16,0,0,1,6.27-5.22c8.39-4.34,18.41-4.76,27.63-2.73s17.78,6.36,25.91,11.15c4.69,2.76,9.27,5.69,13.93,8.5,4.31,2.59,8.77,4.93,13.1,7.49a3.92,3.92,0,0,0,1,.46c1.62.41,4.35-.65,5.76-1.37,2.82-1.44,3.26-3.94,2.7-6.83a56.88,56.88,0,0,0-2.42-9.29c-.2-.51-.4-1-.62-1.52-1.67-3.81-4.31-7.7-8.19-9.49A39.64,39.64,0,0,0,213.86,254c-5,0-10,1.38-15,1.45a101.56,101.56,0,0,1-15.2-.72,68.15,68.15,0,0,1-8.49-1.68,43.78,43.78,0,0,1-8.07-3.17c-.65-.32-1.29-.66-1.92-1a6.39,6.39,0,0,1-1.77-1.39,1.2,1.2,0,0,1-.16-.32.71.71,0,0,1,0-.41l.16-.52.32-1c.25-.68.47-1.37.76-2a38.27,38.27,0,0,1,4.25-7.57,60.48,60.48,0,0,1,12.11-12.33,81.68,81.68,0,0,1,14.79-9c2.61-1.24,5.28-2.34,8-3.37,1.34-.51,2.69-1,4.09-1.44s2.79-.73,4.15-1.16a14.25,14.25,0,0,0,3.84-1.76,23.59,23.59,0,0,0,3.15-2.86c2-2.06,3.81-4.36,6.24-6a10.69,10.69,0,0,1,4-1.78,13.36,13.36,0,0,1,4.37-.13,18.16,18.16,0,0,1,8.07,3.14,13.45,13.45,0,0,1,5.18,6.89,21.13,21.13,0,0,1,.81,8.62,6.55,6.55,0,0,1-.17,1.1l-.3,1-.63,2.06c-.43,1.38-.9,2.75-1.4,4.1a36.82,36.82,0,0,1-1.73,4c-.08.17-.18.33-.27.49,5.55-2,10.54-5.08,10.29-11.84a26.71,26.71,0,0,0-2.06-8.28,52.77,52.77,0,0,0-5-10.49,52,52,0,0,0-4.09-4.55c-.83-1.13-2.22-3.32-2.2-4.62A3.27,3.27,0,0,1,241,185c2.06-1.68,6.09-.66,8.49-.55l10.33.46,20.67.92a74.88,74.88,0,0,0,14.44-.31c5.15-.79,10-2.59,15.11-3.54,5.52-1,11.12-1.53,16.66-2.46,12.05-2,26.33-7.54,29.24-20.92l-70.35.59a27.09,27.09,0,0,0-6.74.62c-3.3.87-6.86,3.71-10.41,3,10-4.74,20.44-6,31.35-6.72l29.69-2c5.46-.38,10.93-.55,16.38-1,2.36-.18,11.19.52,9.78-3.86a8.2,8.2,0,0,0-2-2.83c-2.89-3.18-4.27-7.91-6.89-11.41a77.5,77.5,0,0,0-9.58-10.57c-3.5-3.22-3-8.79-5.69-12.57-1.43-2-6.65-7.15-10.23-7.93l-.25.05a28,28,0,1,1-45.16-7.26l-.95.23L278.19,94l.42-.53.65-.48,1-.73a22.74,22.74,0,0,1,7.17-3.39l1.85-.87s-7.54,1-13.7-3.25-18.47-17.33-32.65-20.48-19.48-2.72-23.35,2a8.17,8.17,0,0,0,2.87,7.44c3.62,3.07,18.49,12.72,17.45,19.8A159.76,159.76,0,0,0,162,127l.89,37.85c-2.4-12-13.7-19.21-18.3-21.7a160.36,160.36,0,0,0-27.7,40.88l12,8,8.58,5.71c-22-.89-28,5.77-28.34,6.2a160.31,160.31,0,0,0-7.43,44.83c3.49,1.45,16.78,6.83,19.47,5.84s-14.24,5.55-19.11,9.28a159.54,159.54,0,0,0,15.76,58.82c7-.19,21.48.23,21.48.23l-14.1,13.22A161.26,161.26,0,0,0,179.43,390l15.8-14.34s-.86,15.6.84,23.08a159.84,159.84,0,0,0,66,14.18q4.9,0,9.8-.3c1.61-.1,3.23-.22,4.84-.37,1-.08,1.27.05,1.33-1a12,12,0,0,0-.53-3.2,37.79,37.79,0,0,0-6.88-14.52,17.79,17.79,0,0,0,2.64,2.23l3,2.51L282,403.2l5.77,4.88c1,.86,1.78,2.16,3.2,2.35,2,.28,4.25-.45,6.2-.9a44.29,44.29,0,0,0,7-2.44c25.9-10.92,47.3-30.52,62.29-54.13C382.53,327.69,394.08,295.16,388.35,265ZM346,140.71c.87,0,1.57,1,1.57,2.22s-.7,2.22-1.57,2.22-1.56-1-1.56-2.22S345.17,140.71,346,140.71Z" transform="translate(218.58 -62.26)"/>
  </g>
</svg>